<svg width="42" height="53" xmlns="http://www.w3.org/2000/svg"><defs><clipPath id="b"><path transform="rotate(90 29.108 19.1)" fill="#fff" d="M29.108 19.1h16v16h-16z"/></clipPath><filter color-interpolation-filters="sRGB" filterUnits="userSpaceOnUse" height="56" width="54" y="0" x="0" id="a"><feGaussianBlur stdDeviation="3.5"/></filter></defs><path fill="none" d="M-1-1h44v55H-1z"/><g filter="url(#a)"><circle fill="#BD335D" r="20" cy="27.5" cx="21.108"/><circle fill="#E83D71" r="20" cy="25.5" cx="21.108"/><g clip-path="url(#b)"><path fill="#fff" d="M21.732 31.544l7.12-7.12a.869.869 0 00.256-.619.869.869 0 00-.256-.619l-.524-.524a.876.876 0 00-1.238 0l-5.979 5.98-5.985-5.987a.87.87 0 00-.62-.255.87.87 0 00-.618.255l-.525.525a.869.869 0 00-.255.619c0 .234.09.454.255.619l7.127 7.126a.87.87 0 00.62.256.87.87 0 00.622-.256z"/></g></g></svg>