<svg width="40" height="42" fill="none" xmlns="http://www.w3.org/2000/svg"><circle cx="20" cy="22" r="20" fill="#BD335D"/><circle cx="20" cy="20" r="20" fill="#E83D71"/><g clip-path="url(#clip0)"><path d="M20.624 26.044l7.12-7.12a.869.869 0 00.256-.619.869.869 0 00-.256-.619l-.524-.524a.876.876 0 00-1.238 0l-5.979 5.98-5.985-5.986a.87.87 0 00-.62-.256.87.87 0 00-.618.256l-.524.524a.869.869 0 00-.256.619c0 .234.09.454.256.619l7.126 7.127a.87.87 0 00.62.255.87.87 0 00.622-.256z" fill="#fff"/></g><defs><clipPath id="clip0"><path fill="#fff" transform="rotate(90 7.2 20.8)" d="M0 0h16v16H0z"/></clipPath></defs></svg>