<svg width="40" height="42" fill="none" xmlns="http://www.w3.org/2000/svg"><circle cx="20" cy="22" r="20" fill="#5C172C"/><circle cx="20" cy="20" r="20" fill="#BD335D"/><g clip-path="url(#clip0)"><path d="M20.624 15.156l7.12 7.12a.869.869 0 01.256.619c0 .234-.09.454-.256.619l-.524.524a.876.876 0 01-1.238 0l-5.979-5.979-5.985 5.986a.87.87 0 01-.62.255.87.87 0 01-.618-.255l-.524-.525a.869.869 0 01-.256-.619c0-.234.09-.454.256-.619l7.126-7.126a.87.87 0 01.62-.256.87.87 0 01.622.256z" fill="#fff"/></g><defs><clipPath id="clip0"><path fill="#fff" transform="matrix(0 -1 -1 0 28 27.6)" d="M0 0h16v16H0z"/></clipPath></defs></svg>