<svg width="54" height="56" fill="none" xmlns="http://www.w3.org/2000/svg"><g filter="url(#filter0_d)"><circle cx="27" cy="27" r="20" fill="#5C172C"/><circle cx="27" cy="25" r="20" fill="#BD335D"/><g clip-path="url(#clip0)"><path d="M27.624 31.044l7.12-7.12a.869.869 0 00.256-.619.869.869 0 00-.256-.619l-.524-.524a.876.876 0 00-1.238 0l-5.979 5.98-5.985-5.986a.87.87 0 00-.62-.256.87.87 0 00-.618.256l-.524.524a.869.869 0 00-.256.619c0 .234.09.454.256.619l7.126 7.127a.87.87 0 00.62.255.87.87 0 00.622-.256z" fill="#fff"/></g></g><defs><clipPath id="clip0"><path fill="#fff" transform="translate(1000 40.6)" d="M0 0h16v16H0z"/></clipPath><filter id="filter0_d" x="0" y="0" width="54" height="56" filterUnits="userSpaceOnUse" color-interpolation-filters="sRGB"><feFlood flood-opacity="0" result="BackgroundImageFix"/><feColorMatrix in="SourceAlpha" values="0 0 0 0 0 0 0 0 0 0 0 0 0 0 0 0 0 0 127 0"/><feOffset dy="2"/><feGaussianBlur stdDeviation="3.5"/><feColorMatrix values="0 0 0 0 0.741176 0 0 0 0 0.2 0 0 0 0 0.364706 0 0 0 0.4 0"/><feBlend in2="BackgroundImageFix" result="effect1_dropShadow"/><feBlend in="SourceGraphic" in2="effect1_dropShadow" result="shape"/></filter></defs></svg>