<svg width="18" height="18" fill="none" xmlns="http://www.w3.org/2000/svg"><g clip-path="url(#clip0)" fill="#788C93"><path d="M8.872 8.67a4.195 4.195 0 003.065-1.27 4.195 4.195 0 001.27-3.065c0-1.19-.427-2.222-1.27-3.065A4.196 4.196 0 008.872 0a4.195 4.195 0 00-3.065 1.27 4.195 4.195 0 00-1.27 3.065c0 1.192.427 2.223 1.27 3.066a4.196 4.196 0 003.065 1.27zm7.586 5.171a10.73 10.73 0 00-.146-1.137 8.954 8.954 0 00-.28-1.144 5.645 5.645 0 00-.47-1.066 4.027 4.027 0 00-.709-.924 3.125 3.125 0 00-1.018-.64 3.52 3.52 0 00-1.3-.235c-.184 0-.362.075-.705.299-.211.137-.458.297-.734.473a4.24 4.24 0 01-.95.418 3.771 3.771 0 01-1.161.188 3.76 3.76 0 01-1.162-.188 4.196 4.196 0 01-.949-.418l-.735-.473c-.342-.224-.52-.3-.704-.3-.468 0-.905.08-1.3.236a3.123 3.123 0 00-1.018.64 4.025 4.025 0 00-.709.924 5.66 5.66 0 00-.47 1.066 8.985 8.985 0 00-.28 1.144 10.67 10.67 0 00-.145 1.137 15.43 15.43 0 00-.036 1.063c0 .94.298 1.7.887 2.262.582.553 1.352.834 2.288.834h8.667c.936 0 1.705-.28 2.287-.834.59-.56.888-1.322.888-2.262 0-.362-.012-.72-.036-1.063z"/></g><defs><clipPath id="clip0"><path fill="#fff" d="M0 0h18v18H0z"/></clipPath></defs></svg>