<svg width="20" height="20" fill="none" xmlns="http://www.w3.org/2000/svg"><g clip-path="url(#clip0)" fill="#E83D71"><path d="M6.143 10.625h7.714c.11 0 .198.09.195.2a29.537 29.537 0 01-.178 2.584.195.195 0 01-.241.168c-1.18-.3-2.395-.452-3.633-.452s-2.453.152-3.633.452a.195.195 0 01-.241-.168 29.56 29.56 0 01-.178-2.584.195.195 0 01.195-.2zM6.126 6.59a.195.195 0 01.241-.167c1.18.3 2.395.452 3.633.452s2.454-.151 3.633-.452c.114-.03.228.05.241.168.093.817.155 1.68.178 2.584.003.11-.086.2-.195.2H6.144a.195.195 0 01-.196-.2c.023-.904.085-1.768.178-2.584zm.241-1.648c.35-1.936.887-3.525 1.506-4.647A.195.195 0 018.005.2a10.095 10.095 0 013.99 0 .195.195 0 01.132.096c.62 1.122 1.156 2.71 1.506 4.647a.195.195 0 01-.14.223c-1.115.3-2.286.46-3.493.46a13.41 13.41 0 01-3.492-.46.195.195 0 01-.14-.223zM5.843.9c.16-.073.325.086.262.25l-.003.008c-.38.989-.689 2.11-.92 3.324a.195.195 0 01-.266.144 13.4 13.4 0 01-2.193-1.147.196.196 0 01-.037-.298A9.996 9.996 0 015.844.9zm-1.34 8.475H.23a.196.196 0 01-.195-.212 9.902 9.902 0 011.606-4.656.196.196 0 01.272-.056 14.637 14.637 0 002.885 1.476.195.195 0 01.125.207c-.123.98-.2 2.003-.225 3.05a.195.195 0 01-.195.191zm9.13 5.683c-.35 1.936-.887 3.524-1.506 4.647a.195.195 0 01-.132.096 10.097 10.097 0 01-3.99 0 .195.195 0 01-.132-.096c-.62-1.122-1.156-2.71-1.506-4.647a.195.195 0 01.14-.223 13.41 13.41 0 013.493-.46c1.207 0 2.378.16 3.492.46a.194.194 0 01.14.223zm2.084-.778c-.17-.073-.342-.141-.515-.207a.195.195 0 01-.125-.207c.123-.98.2-2.003.225-3.05a.195.195 0 01.195-.191h4.273c.115 0 .204.098.195.212a9.903 9.903 0 01-1.606 4.656.196.196 0 01-.272.056 14.63 14.63 0 00-2.37-1.27zM2.723 16.521c.69-.446 1.424-.83 2.193-1.146a.196.196 0 01.266.143c.231 1.214.54 2.336.92 3.324l.003.009a.196.196 0 01-.262.25 9.997 9.997 0 01-3.157-2.282.196.196 0 01.037-.298zm1.975-5.705c.026 1.047.102 2.07.225 3.05a.195.195 0 01-.125.207 14.564 14.564 0 00-2.885 1.476.196.196 0 01-.272-.056 9.903 9.903 0 01-1.606-4.656.196.196 0 01.195-.212h4.273c.106 0 .192.085.195.19zm12.579-7.337c-.69.446-1.424.831-2.193 1.147a.195.195 0 01-.266-.144 19.472 19.472 0 00-.92-3.324l-.003-.009c-.063-.163.103-.322.262-.249a10 10 0 013.157 2.281.196.196 0 01-.037.298zm-1.97 5.896a30.849 30.849 0 00-.23-3.241.195.195 0 01.125-.207 14.61 14.61 0 002.885-1.476.196.196 0 01.272.056 9.902 9.902 0 011.606 4.656.196.196 0 01-.195.212h-4.463zm-1.15 9.725a.195.195 0 01-.262-.249l.003-.009c.38-.988.689-2.11.92-3.324a.195.195 0 01.266-.143c.77.315 1.503.7 2.192 1.146a.196.196 0 01.038.298c-.08.085-.16.17-.243.252a9.997 9.997 0 01-2.914 2.03z"/></g><defs><clipPath id="clip0"><path fill="#fff" transform="matrix(-1 0 0 1 20 0)" d="M0 0h20v20H0z"/></clipPath></defs></svg>