<svg width="28" height="28" fill="none" xmlns="http://www.w3.org/2000/svg"><path d="M20.273 0H7.727C3.467 0 0 3.466 0 7.727v12.546C0 24.533 3.466 28 7.727 28h12.546C24.533 28 28 24.533 28 20.273V7.727C28 3.467 24.534 0 20.273 0zm5.243 20.273a5.249 5.249 0 01-5.243 5.243H7.727a5.248 5.248 0 01-5.243-5.243V7.727a5.249 5.249 0 015.243-5.243h12.546a5.249 5.249 0 015.243 5.243v12.546z" fill="#E83D71"/><path d="M14 6.786c-3.978 0-7.215 3.236-7.215 7.215 0 3.978 3.237 7.214 7.215 7.214 3.978 0 7.215-3.236 7.215-7.214 0-3.979-3.237-7.215-7.215-7.215zm0 11.945A4.736 4.736 0 019.27 14 4.736 4.736 0 0114 9.27 4.736 4.736 0 0118.73 14 4.736 4.736 0 0114 18.73zm7.517-14.052a1.83 1.83 0 00-1.287.533 1.83 1.83 0 00-.535 1.289c0 .478.196.949.535 1.288.338.338.809.533 1.287.533.48 0 .95-.195 1.289-.533.34-.34.533-.81.533-1.288 0-.48-.194-.951-.533-1.289a1.83 1.83 0 00-1.289-.533z" fill="#E83D71"/></svg>