<svg width="28" height="28" fill="none" xmlns="http://www.w3.org/2000/svg"><g clip-path="url(#clip0)" fill="#E83D71"><path d="M20.425 16.692l-.01.087c-2.566-1.279-2.834-1.449-3.166-.952-.23.344-.9 1.125-1.101 1.356-.204.227-.407.245-.754.087-.35-.175-1.473-.542-2.803-1.732-1.036-.928-1.732-2.065-1.937-2.415-.342-.59.373-.675 1.024-1.907.117-.245.057-.437-.029-.611-.087-.175-.784-1.89-1.075-2.574-.28-.681-.569-.595-.785-.595-.672-.058-1.163-.049-1.596.402-1.883 2.07-1.408 4.204.203 6.475 3.167 4.144 4.854 4.907 7.938 5.966.834.265 1.593.227 2.194.141.67-.106 2.061-.841 2.352-1.664.297-.822.297-1.505.21-1.662-.087-.158-.315-.245-.665-.402z"/><path d="M23.94 4.024C14.97-4.648.124 1.642.118 13.875c0 2.445.64 4.83 1.86 6.936L0 28l7.39-1.927c9.223 4.981 20.605-1.634 20.61-12.19a13.76 13.76 0 00-4.078-9.814l.018-.045zm1.729 9.82c-.007 8.905-9.783 14.466-17.514 9.921l-.42-.25-4.375 1.138L4.532 20.4l-.278-.437c-4.812-7.66.716-17.67 9.83-17.67a11.51 11.51 0 018.191 3.396 11.42 11.42 0 013.394 8.155z"/></g><defs><clipPath id="clip0"><path fill="#fff" d="M0 0h28v28H0z"/></clipPath></defs></svg>